<svg xmlns="http://www.w3.org/2000/svg" width="91.805" height="111.569" viewBox="0 0 91.805 111.569">
  <g id="loading_anim" transform="translate(-136.849 -167.951)">
    <rect id="XMLID_1457_" width="15.531" height="8.961" transform="translate(175 181.117)" fill="#d5f5fb"/>
    <path id="XMLID_1456_" d="M255.3,31.159h16.345a5.448,5.448,0,0,0,5.448-5.448h0a5.448,5.448,0,0,0-5.448-5.448H255.3a5.448,5.448,0,0,0-5.448,5.448h0A5.448,5.448,0,0,0,255.3,31.159Z" transform="translate(-80.704 149.959)" fill="#ff7480"/>
    <circle id="XMLID_1452_" cx="43.586" cy="43.586" r="43.586" transform="translate(139.214 190.079)" fill="#84dbff"/>
    <circle id="XMLID_2592_" cx="4.784" cy="4.784" r="4.784" transform="translate(178.016 228.881)" fill="#ff838e"/>
    <path id="XMLID_389_" d="M116,71.415A45.819,45.819,0,0,0,80.374,31.238V25.47a7.718,7.718,0,0,0-1.863-15.208H62.167A7.718,7.718,0,0,0,60.3,25.47v5.784a45.582,45.582,0,0,0-22.355,12.3,46.076,46.076,0,0,0-3.854,4.374c-.057,0-.114-.009-.172-.009-7.11,9.256,2.169,2.131-2.917,4.54a45.508,45.508,0,0,0-4.028,8.725c-3.045,8.381.524,1.753-1.283,4.54a46.156,46.156,0,0,0-1.127,8.726c-.611,7.662.973,3.288.072,4.54a46.089,46.089,0,0,0,1.417,8.726c3.672-13.97-2.079-6.361,0,0,.14.451.96,3.982,1.449,4.54a45.85,45.85,0,0,0,38.335,29.355q2.249.222,4.5.221a45.966,45.966,0,0,0,25.025-7.4,2.27,2.27,0,1,0-2.478-3.8,41.315,41.315,0,1,1,12.169-12.184,2.27,2.27,0,1,0,3.808,2.473A46,46,0,0,0,116,71.415ZM58.988,17.981A3.182,3.182,0,0,1,62.167,14.8H78.511a3.178,3.178,0,1,1,0,6.356H62.167A3.182,3.182,0,0,1,58.988,17.981Zm5.855,12.493V25.7h10.99v4.767A46.255,46.255,0,0,0,64.844,30.474Z" transform="translate(112.426 157.689)"/>
    <path id="XMLID_391_" d="M438.04,425.5a2.271,2.271,0,1,0,1.605.665A2.283,2.283,0,0,0,438.04,425.5Z" transform="translate(-224.419 -163.286)"/>
    <path id="XMLID_394_" d="M190.088,144.609A35.216,35.216,0,1,0,225.3,179.825,35.256,35.256,0,0,0,190.088,144.609Zm0,65.892a30.676,30.676,0,1,1,30.676-30.676A30.71,30.71,0,0,1,190.088,210.5Z" transform="translate(-7.288 53.84)"/>
    <g id="Group_2763" data-name="Group 2763">
      <circle id="XMLID_2618_" cx="32.946" cy="32.946" r="32.946" transform="translate(149.854 200.719)" fill="#fff"/>
      <path id="ROTATATE" d="M283.42,220.076,272.176,231.32a7.036,7.036,0,0,0-6.232,0c-6.594,6.243-1.013,1.266-3.211,3.21a7.054,7.054,0,1,0,12.653,0L286.3,223.616h0l.33-.33a2.27,2.27,0,0,0-3.21-3.21ZM269.06,240.16a2.514,2.514,0,1,1,2.514-2.514A2.517,2.517,0,0,1,269.06,240.16Z" transform="translate(-86.26 -3.982)"/>
    </g>
    <path id="XMLID_398_" d="M402.028,289.86h-2.1a2.27,2.27,0,1,0,0,4.54h2.1a2.27,2.27,0,0,0,0-4.54Z" transform="translate(-194.957 -58.438)"/>
    <path id="XMLID_399_" d="M197.455,289.616h-2.1a2.27,2.27,0,1,0,0,4.54h2.1a2.27,2.27,0,0,0,0-4.54Z" transform="translate(-36.824 -58.249)"/>
    <path id="XMLID_400_" d="M302.393,189.462a2.27,2.27,0,0,0,2.27-2.27v-2.1a2.27,2.27,0,1,0-4.54,0v2.1A2.27,2.27,0,0,0,302.393,189.462Z" transform="translate(-119.566 24.304)"/>
    <path id="XMLID_424_" d="M302.149,387.393a2.27,2.27,0,0,0-2.27,2.27v2.1a2.27,2.27,0,1,0,4.54,0v-2.1A2.27,2.27,0,0,0,302.149,387.393Z" transform="translate(-119.377 -133.83)"/>
    <rect id="Rectangle_2249" data-name="Rectangle 2249" width="5" height="12" rx="2.5" transform="translate(169.343 224.172) rotate(-45)"/>
  </g>
</svg>
