<svg id="newspaper" xmlns="http://www.w3.org/2000/svg" width="28.175" height="29.147" viewBox="0 0 28.175 29.147">
  <path id="Path_4976" data-name="Path 4976" d="M23.8,16H17v6.8h6.8Zm-.972,5.829H17.972V16.972h4.858Z" transform="translate(-9.228 -8.228)" fill="#818181"/>
  <path id="Path_4977" data-name="Path 4977" d="M43.258,16H35.486a.486.486,0,1,0,0,.972h7.772a.486.486,0,1,0,0-.972Z" transform="translate(-18.484 -8.228)" fill="#818181"/>
  <path id="Path_4978" data-name="Path 4978" d="M43.258,22H35.486a.486.486,0,1,0,0,.972h7.772a.486.486,0,1,0,0-.972Z" transform="translate(-18.484 -11.313)" fill="#818181"/>
  <path id="Path_4979" data-name="Path 4979" d="M43.258,28H35.486a.486.486,0,1,0,0,.972h7.772a.486.486,0,1,0,0-.972Z" transform="translate(-18.484 -14.398)" fill="#818181"/>
  <path id="Path_4980" data-name="Path 4980" d="M34.516,34H18.486a.486.486,0,1,0,0,.972H34.516a.486.486,0,1,0,0-.972Z" transform="translate(-9.742 -17.484)" fill="#818181"/>
  <path id="Path_4981" data-name="Path 4981" d="M25.772,40H18.486a.486.486,0,0,0,0,.972h7.287a.486.486,0,1,0,0-.972Z" transform="translate(-9.742 -20.569)" fill="#818181"/>
  <path id="Path_4982" data-name="Path 4982" d="M25.772,46H18.486a.486.486,0,0,0,0,.972h7.287a.486.486,0,1,0,0-.972Z" transform="translate(-9.742 -23.654)" fill="#818181"/>
  <path id="Path_4983" data-name="Path 4983" d="M25.772,52H18.486a.486.486,0,0,0,0,.972h7.287a.486.486,0,1,0,0-.972Z" transform="translate(-9.742 -26.74)" fill="#818181"/>
  <path id="Path_4984" data-name="Path 4984" d="M39,46.8h6.8V40H39Zm.972-5.829h4.858v4.858H39.972Z" transform="translate(-20.54 -20.569)" fill="#818181"/>
  <path id="Path_4985" data-name="Path 4985" d="M29.175,6.315c0-.008,0-.015,0-.023V0H5.858V14.573H1V26.232a2.918,2.918,0,0,0,2.915,2.915H26.26a2.913,2.913,0,0,0,2.91-2.91V6.338C29.171,6.33,29.175,6.323,29.175,6.315ZM28.2.972V5.829H6.829V.972ZM1.972,26.232V15.545H5.858V26.232a1.943,1.943,0,0,1-3.886,0ZM26.26,28.175H6.086c.008-.009.013-.019.02-.028a2.9,2.9,0,0,0,.27-.362c.013-.02.025-.041.038-.062a2.857,2.857,0,0,0,.205-.412c.008-.02.015-.04.022-.06a2.885,2.885,0,0,0,.133-.461c0-.015,0-.03.007-.044a2.9,2.9,0,0,0,.049-.515V6.8H28.2V26.237A1.941,1.941,0,0,1,26.26,28.175Z" transform="translate(-1)" fill="#818181"/>
  <path id="Path_4986" data-name="Path 4986" d="M34.659,4H23V6.915H34.659Zm-.972,1.943H23.972V4.972h9.716Z" transform="translate(-12.313 -2.057)" fill="#818181"/>
</svg>
