<svg xmlns="http://www.w3.org/2000/svg" xmlns:xlink="http://www.w3.org/1999/xlink" width="309" height="220" viewBox="0 0 309 220">
  <defs>
    <linearGradient id="linear-gradient" y1="0.5" x2="1" y2="0.5" gradientUnits="objectBoundingBox">
      <stop offset="0" stop-color="#fee55f"/>
      <stop offset="1" stop-color="#ff83a1"/>
    </linearGradient>
    <linearGradient id="linear-gradient-3" x1="0.074" y1="0.288" x2="0.94" y2="0.891" xlink:href="#linear-gradient"/>
    <linearGradient id="linear-gradient-4" x1="-11.663" y1="0.5" x2="20.563" y2="0.5" xlink:href="#linear-gradient"/>
    <linearGradient id="linear-gradient-5" x1="-30.947" y1="0.5" x2="1.28" y2="0.5" xlink:href="#linear-gradient"/>
    <linearGradient id="linear-gradient-6" x1="-24.166" y1="0.5" x2="8.06" y2="0.5" xlink:href="#linear-gradient"/>
    <linearGradient id="linear-gradient-7" x1="-2.545" y1="0.5" x2="15.953" y2="0.5" xlink:href="#linear-gradient"/>
    <linearGradient id="linear-gradient-8" x1="-0.587" y1="0.5" x2="31.64" y2="0.5" xlink:href="#linear-gradient"/>
    <linearGradient id="linear-gradient-9" x1="-6.34" y1="0.5" x2="20.633" y2="0.5" xlink:href="#linear-gradient"/>
    <linearGradient id="linear-gradient-10" x1="-41.885" y1="0.5" x2="1.965" y2="0.5" xlink:href="#linear-gradient"/>
    <linearGradient id="linear-gradient-11" x1="-28.666" y1="0.5" x2="15.182" y2="0.5" xlink:href="#linear-gradient"/>
  </defs>
  <g id="quiz_time_oval" transform="translate(-26 -23)">
    <ellipse id="Ellipse_440" data-name="Ellipse 440" cx="154.5" cy="110" rx="154.5" ry="110" transform="translate(26 23)" fill="#fff"/>
    <g id="Group_2714" data-name="Group 2714" transform="translate(71.143 29.054)">
      <g id="Group_2697" data-name="Group 2697" transform="translate(5.688 21.508)">
        <path id="Path_5018" data-name="Path 5018" d="M417.63,466.945a101.668,101.668,0,1,0-191.673,0Z" transform="translate(-220.125 -331.261)" opacity="0.2" fill="url(#linear-gradient)"/>
        <path id="Path_5019" data-name="Path 5019" d="M453,528.611a77.4,77.4,0,1,0-139.075,0Z" transform="translate(-281.791 -392.927)" opacity="0.4" fill="url(#linear-gradient)"/>
        <path id="Path_5020" data-name="Path 5020" d="M487.61,593.745a51.765,51.765,0,1,0-78.036,0Z" transform="translate(-346.924 -458.061)" fill="url(#linear-gradient-3)"/>
      </g>
      <g id="Group_2699" data-name="Group 2699" transform="translate(63.405 122.661)">
        <path id="Path_5021" data-name="Path 5021" d="M509.284,738.766a10.107,10.107,0,0,0-3.441-11.03c-5.774-4.7-13.52-.173-13.52-.173a12.52,12.52,0,0,0-9.889-9.889,14.528,14.528,0,0,0-13.969,4.7s-2.829-14.937-19.23-11.768c-12.616,2.438-12.512,15.087-12.512,15.087s-5.74-1.28-9.163,3.561a9.228,9.228,0,0,0-.8,9.509Z" transform="translate(-425.432 -704.313)" fill="#d6d6d6"/>
        <g id="Group_2698" data-name="Group 2698" transform="translate(0.369 5.855)">
          <path id="Path_5022" data-name="Path 5022" d="M432.3,733.543a8.325,8.325,0,0,1,8.572-3.561s-.1-12.649,11.7-15.087c8.226-1.7,12.8,1.806,15.277,5.424-1.476-3.979-6.083-12.132-18.617-9.709-12.616,2.438-12.512,15.087-12.512,15.087s-5.74-1.28-9.163,3.561a9.228,9.228,0,0,0-.8,9.509h3.891A9.6,9.6,0,0,1,432.3,733.543Z" transform="translate(-425.801 -710.168)" fill="#fff"/>
          <path id="Path_5023" data-name="Path 5023" d="M615.2,745.938c-5.774-4.7-13.52-.173-13.52-.173a12.52,12.52,0,0,0-9.889-9.889,14.457,14.457,0,0,0-13.6,4.28,17.867,17.867,0,0,1,1.726,4.708s4.895-6.6,13.068-4.7,9.251,9.889,9.251,9.889,7.245-4.53,12.647.173a10.211,10.211,0,0,1,3.588,6.744h.165A10.107,10.107,0,0,0,615.2,745.938Z" transform="translate(-535.158 -728.369)" fill="#fff"/>
        </g>
        <path id="Path_5024" data-name="Path 5024" d="M402.264,737.894a.565.565,0,0,1-.53-.76,9.466,9.466,0,0,0-3.267-10.4c-5.4-4.395-12.8-.166-12.878-.123a.565.565,0,0,1-.844-.407,11.853,11.853,0,0,0-9.45-9.418,14.03,14.03,0,0,0-13.407,4.5.565.565,0,0,1-1-.245c-.011-.06-1.208-6.049-6.2-9.428-3.263-2.21-7.425-2.846-12.371-1.891a13.763,13.763,0,0,0-10.562,8.1,17.271,17.271,0,0,0-1.493,6.432.565.565,0,0,1-.688.556A8.594,8.594,0,0,0,321,728.147a8.7,8.7,0,0,0-.764,8.906.565.565,0,0,1-.492.842c-.338,0-.447-.6-.447-.658-.628-1.629-1.97-5.851.781-9.742a9.71,9.71,0,0,1,9.089-3.883c.2-2.684,1.692-12.82,12.94-14.994,5.257-1.016,9.708-.319,13.23,2.072a16.929,16.929,0,0,1,6.4,9.111,15.066,15.066,0,0,1,13.8-4.115,13.146,13.146,0,0,1,10.159,9.6c2.069-1.013,8.422-3.547,13.487.578a10.763,10.763,0,0,1,3.614,11.664A.565.565,0,0,1,402.264,737.894Z" transform="translate(-318.413 -702.876)" fill="#3d454e"/>
        <path id="Path_5025" data-name="Path 5025" d="M494.489,763.859c9.815-4.769,16.315,6.224,16.315,6.224s6.842-4.772,11.512-1.175a9.9,9.9,0,0,1,3.142,3.943,9.256,9.256,0,0,0-4.057-6.92c-4.91-3.6-12.1,1.176-12.1,1.176s-6.834-10.993-17.151-6.224c-9.642,4.457-7.123,13.416-7.123,13.416h2.411C487.518,771.282,488.7,766.674,494.489,763.859Z" transform="translate(-467.718 -739.844)" fill="#fff"/>
        <path id="Path_5026" data-name="Path 5026" d="M533.012,773.443h-8.99a.565.565,0,0,1-.555-.67c.032-.18.755-4.479-3.79-7.807s-11.388,1.145-11.456,1.191a.565.565,0,0,1-.792-.172,19.015,19.015,0,0,0-4.584-4.76,11.16,11.16,0,0,0-11.85-1.25c-9.074,4.194-6.912,12.4-6.816,12.751a.565.565,0,0,1-1.088.3c-.027-.094-2.534-9.476,7.43-14.082,9.383-4.338,16.05,3.883,17.549,5.973,1.737-1.025,7.8-4.148,12.274-.868a9.6,9.6,0,0,1,4.3,8.259h8.366a.565.565,0,1,1,0,1.13Z" transform="translate(-466.328 -738.424)" fill="#3d454e"/>
        <path id="Path_5032" data-name="Path 5032" d="M444.989,715.793a.565.565,0,0,1-.539-.733,23.6,23.6,0,0,1,4.486-7.939,24.825,24.825,0,0,1,1.891-1.855.565.565,0,1,1,.746.848,23.587,23.587,0,0,0-1.8,1.77,22.857,22.857,0,0,0-4.241,7.512A.565.565,0,0,1,444.989,715.793Z" transform="translate(-438.796 -700.695)" fill="#3d454e"/>
        <path id="Path_5033" data-name="Path 5033" d="M478.951,692.535a.565.565,0,0,1-.288-1.051,16.877,16.877,0,0,1,4.813-2.036.565.565,0,0,1,.221,1.108,16.128,16.128,0,0,0-4.458,1.9A.563.563,0,0,1,478.951,692.535Z" transform="translate(-463.166 -689.437)" fill="#3d454e"/>
        <path id="Path_5034" data-name="Path 5034" d="M649.9,733.782a.565.565,0,0,1-.546-.423,12.863,12.863,0,0,0-3.531-5.324,14.865,14.865,0,0,0-4-2.618.565.565,0,0,1,.433-1.044,15.769,15.769,0,0,1,4.346,2.846,13.687,13.687,0,0,1,3.843,5.858.565.565,0,0,1-.547.705Z" transform="translate(-580.196 -714.476)" fill="#3d454e"/>
        <path id="Path_5035" data-name="Path 5035" d="M596.617,798.191a.565.565,0,0,1-.537-.39,4.177,4.177,0,0,0-1.572-1.822,5.707,5.707,0,0,0-1.827-.759.565.565,0,0,1,.224-1.107,6.8,6.8,0,0,1,2.248.939,5.171,5.171,0,0,1,2,2.4.566.566,0,0,1-.539.736Z" transform="translate(-544.859 -764.543)" fill="#3d454e"/>
        <path id="Path_5036" data-name="Path 5036" d="M692.032,785.179a.575.575,0,0,1-.114-.012.565.565,0,0,1-.441-.666,5.988,5.988,0,0,0-.927-4.411,5.922,5.922,0,0,0-3.782-1.988.565.565,0,0,1,.08-1.127,6.284,6.284,0,0,1,5.736,7.751A.566.566,0,0,1,692.032,785.179Z" transform="translate(-612.324 -752.253)" fill="#252527"/>
      </g>
      <g id="Group_2704" data-name="Group 2704" transform="translate(95.922 101.712)">
        <g id="Group_2703" data-name="Group 2703">
          <g id="Group_2700" data-name="Group 2700" transform="translate(15.496 5.009)">
            <path id="Path_5037" data-name="Path 5037" d="M595.074,636.77a.565.565,0,0,1-.565-.565v-2.643a.565.565,0,0,1,1.13,0v2.643A.565.565,0,0,1,595.074,636.77Z" transform="translate(-594.509 -632.998)" fill="#3d454e"/>
            <path id="Path_5038" data-name="Path 5038" d="M595.074,661.078a.565.565,0,0,1-.565-.565v-8.985a.565.565,0,1,1,1.13,0v8.985A.565.565,0,0,1,595.074,661.078Z" transform="translate(-594.509 -645.89)" fill="#3d454e"/>
          </g>
          <g id="Group_2701" data-name="Group 2701" transform="translate(10.331 8.18)">
            <path id="Path_5039" data-name="Path 5039" d="M576.784,654.552a.565.565,0,0,1-.565-.565v-9.2a.565.565,0,1,1,1.13,0v9.2A.565.565,0,0,1,576.784,654.552Z" transform="translate(-576.219 -644.226)" fill="#3d454e"/>
            <path id="Path_5040" data-name="Path 5040" d="M576.784,688.478a.565.565,0,0,1-.565-.565v-2.326a.565.565,0,0,1,1.13,0v2.326A.565.565,0,0,1,576.784,688.478Z" transform="translate(-576.219 -673.502)" fill="#3d454e"/>
          </g>
          <g id="Group_2702" data-name="Group 2702" transform="translate(5.165 2.4)">
            <path id="Path_5041" data-name="Path 5041" d="M558.494,631.441a.565.565,0,0,1-.565-.565v-6.554a.565.565,0,1,1,1.13,0v6.554A.565.565,0,0,1,558.494,631.441Z" transform="translate(-557.929 -623.758)" fill="#3d454e"/>
            <path id="Path_5042" data-name="Path 5042" d="M558.494,662.472a.565.565,0,0,1-.565-.565v-4.017a.565.565,0,1,1,1.13,0v4.017A.565.565,0,0,1,558.494,662.472Z" transform="translate(-557.929 -647.846)" fill="#3d454e"/>
          </g>
          <path id="Path_5043" data-name="Path 5043" d="M540.2,640.833a.565.565,0,0,1-.565-.565v-5.784a.565.565,0,1,1,1.13,0v5.784A.565.565,0,0,1,540.2,640.833Z" transform="translate(-539.639 -628.649)" fill="#3d454e"/>
          <path id="Path_5044" data-name="Path 5044" d="M613.364,625.682a.565.565,0,0,1-.565-.565v-9.292a.565.565,0,1,1,1.13,0v9.292A.565.565,0,0,1,613.364,625.682Z" transform="translate(-592.138 -615.26)" fill="#3d454e"/>
        </g>
      </g>
      <g id="light" transform="translate(56.142 5.558)">
        <g id="Group_2705" data-name="Group 2705" transform="translate(0 7.183)">
          <path id="Path_5045" data-name="Path 5045" d="M715.824,329.994a.261.261,0,0,1-.044,0,.255.255,0,0,1-.207-.295A28.619,28.619,0,0,0,702.9,300.687a.255.255,0,0,1,.276-.428,29.127,29.127,0,0,1,12.9,29.525A.255.255,0,0,1,715.824,329.994Z" transform="translate(-616.926 -300.218)" fill="#252527"/>
        </g>
        <g id="Group_2706" data-name="Group 2706" transform="translate(4.653)">
          <path id="Path_5047" data-name="Path 5047" d="M704.312,300.759a.51.51,0,0,1-.5-.444,29.347,29.347,0,0,0-21.262-24.531.51.51,0,1,1,.274-.982,30.364,30.364,0,0,1,22,25.382.509.509,0,0,1-.44.571A.484.484,0,0,1,704.312,300.759Z" transform="translate(-606.792 -274.783)" fill="#ffcf00"/>
          <path id="Path_5048" data-name="Path 5048" d="M420.984,440.9a.507.507,0,0,1-.33-.121,15.267,15.267,0,0,1-4.7-16.222.51.51,0,1,1,.973.3,14.25,14.25,0,0,0,4.385,15.141.51.51,0,0,1-.33.9Z" transform="translate(-415.256 -382.005)" fill="#ffcf00"/>
        </g>
      </g>
      <g id="shapes2" transform="translate(9.974 0)">
        <path id="Path_5074" data-name="Path 5074" d="M490.617,261.53a3.214,3.214,0,1,1,3.214-3.214A3.218,3.218,0,0,1,490.617,261.53Zm0-5.3a2.084,2.084,0,1,0,2.084,2.085A2.087,2.087,0,0,0,490.617,256.232Z" transform="translate(-416.206 -255.102)" fill="url(#linear-gradient-4)"/>
        <path id="Path_5075" data-name="Path 5075" d="M929.513,705.846a3.214,3.214,0,1,1,3.214-3.214A3.218,3.218,0,0,1,929.513,705.846Zm0-5.3a2.084,2.084,0,1,0,2.084,2.084A2.087,2.087,0,0,0,929.513,700.548Z" transform="translate(-731.153 -573.939)" fill="url(#linear-gradient-5)"/>
        <path id="Path_5076" data-name="Path 5076" d="M775.2,503.011a3.214,3.214,0,1,1,3.214-3.214A3.218,3.218,0,0,1,775.2,503.011Zm0-5.3a2.084,2.084,0,1,0,2.084,2.084A2.087,2.087,0,0,0,775.2,497.713Z" transform="translate(-620.417 -428.386)" fill="url(#linear-gradient-6)"/>
        <path id="Path_5077" data-name="Path 5077" d="M328.452,414.417a5.6,5.6,0,1,1,5.6-5.6A5.605,5.605,0,0,1,328.452,414.417Zm0-10.068a4.469,4.469,0,1,0,4.469,4.469A4.475,4.475,0,0,0,328.452,404.349Z" transform="translate(-298.127 -361.389)" fill="url(#linear-gradient-7)"/>
        <path id="Path_5078" data-name="Path 5078" d="M238.513,669.846a3.214,3.214,0,1,1,3.214-3.214A3.218,3.218,0,0,1,238.513,669.846Zm0-5.3a2.084,2.084,0,1,0,2.084,2.084A2.087,2.087,0,0,0,238.513,664.548Z" transform="translate(-235.299 -548.105)" fill="url(#linear-gradient-8)"/>
        <path id="Path_5079" data-name="Path 5079" d="M398.974,591.287l2.876-2.876a.565.565,0,0,0-.8-.8l-2.876,2.876-2.876-2.876a.565.565,0,0,0-.8.8l2.876,2.876-2.876,2.875a.565.565,0,1,0,.8.8l2.876-2.876,2.876,2.876a.565.565,0,0,0,.8-.8Z" transform="translate(-349.422 -493.59)" fill="url(#linear-gradient-9)"/>
        <path id="Path_5080" data-name="Path 5080" d="M925.73,549.043l1.4-1.4a.565.565,0,0,0-.8-.8l-1.4,1.4-1.4-1.4a.565.565,0,1,0-.8.8l1.4,1.4-1.4,1.4a.565.565,0,1,0,.8.8l1.4-1.4,1.4,1.4a.565.565,0,0,0,.8-.8Z" transform="translate(-728.477 -464.336)" fill="url(#linear-gradient-10)"/>
        <path id="Path_5081" data-name="Path 5081" d="M704.627,673.325l1.4-1.4a.565.565,0,0,0-.8-.8l-1.4,1.4-1.4-1.4a.565.565,0,0,0-.8.8l1.4,1.4-1.4,1.4a.565.565,0,1,0,.8.8l1.4-1.4,1.4,1.4a.565.565,0,1,0,.8-.8Z" transform="translate(-569.816 -553.519)" fill="url(#linear-gradient-11)"/>
      </g>
      <g id="shapes1" transform="translate(0 8.892)">
        <path id="Path_5082" data-name="Path 5082" d="M860.435,411.225a1.67,1.67,0,1,1,1.67-1.67A1.672,1.672,0,0,1,860.435,411.225Zm0-2.775a1.105,1.105,0,1,0,1.1,1.105A1.107,1.107,0,0,0,860.435,408.45Z" transform="translate(-672.718 -373.63)" fill="#252527"/>
        <path id="Path_5083" data-name="Path 5083" d="M961.435,513.225a1.67,1.67,0,1,1,1.67-1.67A1.672,1.672,0,0,1,961.435,513.225Zm0-2.775a1.105,1.105,0,1,0,1.1,1.105A1.107,1.107,0,0,0,961.435,510.45Z" transform="translate(-745.194 -446.824)" fill="#252527"/>
        <path id="Path_5084" data-name="Path 5084" d="M828.153,717.66a1.388,1.388,0,1,1,1.387-1.388A1.39,1.39,0,0,1,828.153,717.66Zm0-2.21a.823.823,0,1,0,.822.823A.824.824,0,0,0,828.153,715.45Z" transform="translate(-649.755 -593.93)" fill="#252527"/>
        <path id="Path_5085" data-name="Path 5085" d="M400.153,315.66a1.388,1.388,0,1,1,1.388-1.388A1.389,1.389,0,0,1,400.153,315.66Zm0-2.21a.823.823,0,1,0,.823.823A.824.824,0,0,0,400.153,313.45Z" transform="translate(-342.627 -305.459)" fill="#252527"/>
        <path id="Path_5086" data-name="Path 5086" d="M339.153,560.66a1.388,1.388,0,1,1,1.387-1.388A1.389,1.389,0,0,1,339.153,560.66Zm0-2.21a.823.823,0,1,0,.823.823A.824.824,0,0,0,339.153,558.45Z" transform="translate(-298.854 -481.268)" fill="#252527"/>
        <path id="Path_5087" data-name="Path 5087" d="M532.971,286.988l-.4-.4-1,1-1-1-.4.4,1,1-1,1,.4.4,1-1,1,1,.4-.4-1-1Z" transform="translate(-436.926 -286.589)" fill="#252527"/>
        <path id="Path_5088" data-name="Path 5088" d="M977.779,669.495l-.4-.4-1,1-1-1-.4.4,1,1-1,1,.4.4,1-1,1,1,.4-.4-1-1Z" transform="translate(-756.115 -561.072)" fill="#252527"/>
        <g id="Group_2712" data-name="Group 2712" transform="translate(168.464 86.263)">
          <g id="Group_2711" data-name="Group 2711" transform="translate(0 0)">
            <rect id="Rectangle_2231" data-name="Rectangle 2231" width="3.389" height="0.565" transform="translate(0 2.396) rotate(-45)" fill="#252527"/>
            <rect id="Rectangle_2232" data-name="Rectangle 2232" width="0.565" height="3.389" transform="translate(0 0.399) rotate(-45)" fill="#252527"/>
          </g>
        </g>
        <path id="Path_5089" data-name="Path 5089" d="M202.779,560.495l-.4-.4-1,1-1-1-.4.4,1,1-1,1,.4.4,1-1,1,1,.4-.4-1-1Z" transform="translate(-199.983 -482.854)" fill="#252527"/>
        <path id="Path_5090" data-name="Path 5090" d="M280.779,418.495l-.4-.4-1,1-1-1-.4.4,1,1-1,1,.4.4,1-1,1,1,.4-.4-1-1Z" transform="translate(-255.955 -380.957)" fill="#252527"/>
        <path id="Path_5091" data-name="Path 5091" d="M461.435,537.225a1.67,1.67,0,1,1,1.67-1.67A1.672,1.672,0,0,1,461.435,537.225Zm0-2.775a1.105,1.105,0,1,0,1.105,1.105A1.107,1.107,0,0,0,461.435,534.45Z" transform="translate(-386.4 -464.046)" fill="#252527"/>
      </g>
    </g>
    <g id="Group_2762" data-name="Group 2762" transform="translate(129 41.03)">
      <rect id="Rectangle_2236" data-name="Rectangle 2236" width="42.92" height="11.013" transform="translate(27.756 53.708)" fill="#89a7c9"/>
      <rect id="Rectangle_2237" data-name="Rectangle 2237" width="40.562" height="11.013" transform="translate(28.553 53.708)" fill="#6c849f"/>
      <rect id="Rectangle_2238" data-name="Rectangle 2238" width="37.804" height="11.013" transform="translate(29.931 53.708)" fill="#404e5e"/>
      <rect id="Rectangle_2239" data-name="Rectangle 2239" width="31.018" height="11.013" transform="translate(33.325 53.708)" fill="#171c21"/>
      <path id="Path_5120" data-name="Path 5120" d="M176.627,321.36h-60.4a7.892,7.892,0,0,0-7.892,7.892V346.4H184.52V329.252A7.893,7.893,0,0,0,176.627,321.36Z" transform="translate(-97.211 -261.284)" fill="#c8d1dc"/>
      <path id="Path_5121" data-name="Path 5121" d="M176.627,321.36h-60.4a7.892,7.892,0,0,0-7.892,7.892V346.4H184.52V329.252A7.893,7.893,0,0,0,176.627,321.36Z" transform="translate(-97.211 -261.284)" fill="#c8d1dc"/>
      <path id="Path_5122" data-name="Path 5122" d="M200.888,321.36H164.934a7.893,7.893,0,0,0-7.893,7.892V346.4h51.74V329.252A7.893,7.893,0,0,0,200.888,321.36Z" transform="translate(-134.17 -261.284)" fill="#d5dfeb"/>
      <path id="Path_5123" data-name="Path 5123" d="M361.76,321.36h-4.74a7.893,7.893,0,0,1,7.893,7.892V346.4h4.74V329.252A7.893,7.893,0,0,0,361.76,321.36Z" transform="translate(-285.915 -261.284)" fill="#eef1f5"/>
      <path id="Path_5124" data-name="Path 5124" d="M386.237,321.36h-.658a7.893,7.893,0,0,1,7.892,7.892V346.4h.658V329.252A7.893,7.893,0,0,0,386.237,321.36Z" transform="translate(-307.586 -261.284)" fill="#e6f0fc"/>
      <path id="Path_5125" data-name="Path 5125" d="M117.648,321.36h4.739a7.892,7.892,0,0,0-7.892,7.892V346.4h-4.74V329.252A7.892,7.892,0,0,1,117.648,321.36Z" transform="translate(-98.29 -261.284)" fill="#9aabbe"/>
      <path id="Path_5126" data-name="Path 5126" d="M146,321.36h-1.7a7.893,7.893,0,0,0-7.892,7.892V346.4h1.7V329.252A7.893,7.893,0,0,1,146,321.36Z" transform="translate(-118.514 -261.284)" fill="#9aabbe"/>
      <path id="Path_5127" data-name="Path 5127" d="M172.568,408.618H90.149a1.673,1.673,0,0,0-1.673,1.674v3.635h85.765v-3.635A1.673,1.673,0,0,0,172.568,408.618Z" transform="translate(-82.143 -327.496)" fill="#9aabbe"/>
      <path id="Path_5128" data-name="Path 5128" d="M434.459,408.618h-.441a1.673,1.673,0,0,1,1.673,1.674v3.635h.441v-3.635A1.673,1.673,0,0,0,434.459,408.618Z" transform="translate(-344.341 -327.496)" fill="#dfe9f5"/>
      <path id="Path_5129" data-name="Path 5129" d="M414.755,408.618h-2.631a1.673,1.673,0,0,1,1.673,1.674v3.635h2.631v-3.635A1.673,1.673,0,0,0,414.755,408.618Z" transform="translate(-327.728 -327.496)" fill="#bcd1e8"/>
      <path id="Path_5130" data-name="Path 5130" d="M120.241,408.618h2.631a1.673,1.673,0,0,0-1.673,1.674v3.635h-2.631v-3.635A1.673,1.673,0,0,1,120.241,408.618Z" transform="translate(-104.977 -327.496)" fill="#6d86a1"/>
      <path id="Path_5131" data-name="Path 5131" d="M203,408.618H150.423a1.673,1.673,0,0,0-1.673,1.674v3.635h55.919v-3.635A1.673,1.673,0,0,0,203,408.618Z" transform="translate(-127.879 -327.496)" fill="#adc1d6"/>
      <rect id="Rectangle_2240" data-name="Rectangle 2240" width="53.161" height="15.986" transform="translate(22.146 63.613)" fill="#f08f1f"/>
      <path id="Path_5132" data-name="Path 5132" d="M170.812,348.036a2.654,2.654,0,1,1,5.3,0v5.776a3.263,3.263,0,0,1-.334,1.555c.079.206.206.238.492.238h.159v1.555h-.238a1.533,1.533,0,0,1-1.507-.761,3.585,3.585,0,0,1-1.222.206,2.465,2.465,0,0,1-2.65-2.792Zm1.746,5.887c0,.793.349,1.1.9,1.1s.9-.3.9-1.1v-6c0-.793-.349-1.094-.9-1.094s-.9.3-.9,1.094Z" transform="translate(-144.619 -279.407)" fill="#fff"/>
      <path id="Path_5133" data-name="Path 5133" d="M198.873,345.769v8.568c0,.793.349,1.08.9,1.08s.9-.286.9-1.08v-8.568h1.65v8.457c0,1.778-.889,2.793-2.6,2.793s-2.6-1.015-2.6-2.793v-8.457Z" transform="translate(-164.588 -279.805)" fill="#fff"/>
      <rect id="Rectangle_2241" data-name="Rectangle 2241" width="1.745" height="11.107" transform="translate(38.935 65.963)" fill="#fff"/>
      <path id="Path_5134" data-name="Path 5134" d="M240.132,345.769v1.555l-3.316,7.965h3.316v1.587h-5.109v-1.555l3.316-7.965h-3.157v-1.587Z" transform="translate(-193.343 -279.805)" fill="#fff"/>
      <path id="Path_5135" data-name="Path 5135" d="M268.577,345.769h5.395v1.587h-1.825v9.52H270.4v-9.52h-1.825Z" transform="translate(-218.804 -279.805)" fill="#fff"/>
      <rect id="Rectangle_2242" data-name="Rectangle 2242" width="1.745" height="11.107" transform="translate(55.93 65.963)" fill="#fff"/>
      <path id="Path_5136" data-name="Path 5136" d="M310.249,353.655l1.19-7.886h2.427v11.107h-1.65v-7.965l-1.206,7.965h-1.65l-1.3-7.854v7.854h-1.523V345.769h2.428Z" transform="translate(-247.607 -279.805)" fill="#fff"/>
      <path id="Path_5137" data-name="Path 5137" d="M343.94,350.45h2.4v1.586h-2.4v3.253h3.015v1.587h-4.76V345.769h4.76v1.587H343.94Z" transform="translate(-274.665 -279.805)" fill="#fff"/>
      <path id="Path_5138" data-name="Path 5138" d="M202.659,232.79a30.454,30.454,0,0,0-59.281,0Z" transform="translate(-123.802 -176.275)" fill="#fe3229"/>
      <path id="Path_5139" data-name="Path 5139" d="M173.018,274.735c-10.793,0-20.288-2.413-25.817-6.069a30.287,30.287,0,0,0-3.823,9.148h59.281a30.292,30.292,0,0,0-3.823-9.148C193.306,272.322,183.811,274.735,173.018,274.735Z" transform="translate(-123.802 -221.299)" fill="#db180f"/>
      <path id="Path_5140" data-name="Path 5140" d="M231.451,218.5c0,4.177-6.873,7.563-15.351,7.563s-15.351-3.386-15.351-7.563,6.873-7.564,15.351-7.564S231.451,214.323,231.451,218.5Z" transform="translate(-167.336 -177.494)" fill="#fe5851"/>
      <path id="Path_5141" data-name="Path 5141" d="M245.29,214.677c0,1.574-3.986,2.851-8.9,2.851s-8.9-1.277-8.9-2.851,3.986-2.851,8.9-2.851S245.29,213.1,245.29,214.677Z" transform="translate(-187.622 -178.169)" fill="#fe847f"/>
      <path id="Path_5142" data-name="Path 5142" d="M254.508,214.073c0,.77-2.063.859-4.607.859s-4.607-.089-4.607-.859,2.063-1.4,4.607-1.4S254.508,213.3,254.508,214.073Z" transform="translate(-201.137 -178.816)" fill="#fff"/>
      <path id="Path_5143" data-name="Path 5143" d="M393.624,103.181,372.78,116.952l6.285.639L366.9,127.526l23.317-12.9-7.5-1.26Z" transform="translate(-293.409 -95.729)" fill="#fe3229"/>
      <path id="Path_5144" data-name="Path 5144" d="M62.218,72.284,84.955,90.52l-6.782,1.369,9.149,11.895L64.192,84.814l8.034.085Z" transform="translate(-62.218 -72.284)" fill="#fe3229"/>
      <path id="Path_5145" data-name="Path 5145" d="M438.582,311.372l9.244,2.711-3.081,1.315,4.621,2.789-9.049-2.865,3.268-1.409Z" transform="translate(-347.805 -253.705)" fill="#fde400"/>
      <path id="Path_5146" data-name="Path 5146" d="M333.042,93.986a.772.772,0,0,1-.8-.965l5.2-19.984a.772.772,0,0,1,1.494.389l-5.2,19.984A.772.772,0,0,1,333.042,93.986Z" transform="translate(-267.096 -72.417)" fill="#fed137"/>
      <path id="Path_5147" data-name="Path 5147" d="M414.836,223.707a.772.772,0,0,1-.177-1.523l13.777-3.263a.772.772,0,0,1,.356,1.5l-13.778,3.263A.783.783,0,0,1,414.836,223.707Z" transform="translate(-329.2 -183.537)" fill="#fe3229"/>
      <path id="Path_5148" data-name="Path 5148" d="M215.083,146.723a.772.772,0,0,1-1.475.421l-3.675-8.62a.772.772,0,0,1,1.426-.594l3.675,8.62A.775.775,0,0,1,215.083,146.723Z" transform="translate(-174.26 -121.735)" fill="#fed137"/>
      <path id="Path_5149" data-name="Path 5149" d="M88.338,226.462a.755.755,0,0,1-.178-.042l-13.072-4.8a.772.772,0,0,1,.532-1.449l13.072,4.8a.772.772,0,0,1-.355,1.492Z" transform="translate(-71.6 -184.461)" fill="#fed137"/>
      <path id="Path_5150" data-name="Path 5150" d="M222.311,90.153c.676-.384,2.085,1,2.085,1s1.617-.895,2.19-.37-.159,2.228-.159,2.228,1.762,1.191,1.44,1.9-2.58.608-2.58.608-.98,1.935-1.753,1.848-.983-2.157-.983-2.157-1.926-.073-2.082-.835S222,92.507,222,92.507,221.634,90.537,222.311,90.153Z" transform="translate(-182.292 -85.792)" fill="#db180f"/>
      <path id="Path_5151" data-name="Path 5151" d="M292.155,159.321c.4.238.1,1.378.1,1.378s.942.576.839,1.029-1.2.576-1.2.576-.1,1.268-.561,1.309-1.078-1.162-1.078-1.162-1.295.062-1.478-.366.831-1.148.831-1.148-.531-1.023-.181-1.329,1.42.246,1.42.246S291.756,159.083,292.155,159.321Z" transform="translate(-234.11 -138.293)" fill="#fe5851"/>
      <path id="Path_5152" data-name="Path 5152" d="M418.877,269.843c.4.221.15,1.359.15,1.359s.954.534.869.986-1.17.615-1.17.615-.049,1.258-.505,1.316-1.11-1.108-1.11-1.108-1.279.111-1.476-.306.778-1.167.778-1.167-.564-.991-.229-1.307,1.414.189,1.414.189S418.473,269.622,418.877,269.843Z" transform="translate(-330.371 -222.163)" fill="#fe3229"/>
      <path id="Path_5153" data-name="Path 5153" d="M77.053,296.8c.432-.159,1.122.781,1.122.781s1.03-.368,1.314-.006-.306,1.286-.306,1.286.915.864.659,1.246-1.565.108-1.565.108-.758,1.036-1.2.911-.368-1.354-.368-1.354-1.118-.227-1.136-.687,1.072-.941,1.072-.941S76.621,296.963,77.053,296.8Z" transform="translate(-72.352 -242.637)" fill="#fef856"/>
    </g>
  </g>
</svg>
