<svg id="quiz_pen" xmlns="http://www.w3.org/2000/svg" width="29.123" height="29.147" viewBox="0 0 29.123 29.147">
  <path id="Path_4991" data-name="Path 4991" d="M50.55,87.976a2.727,2.727,0,1,0-2.727-2.727A2.73,2.73,0,0,0,50.55,87.976Zm0-4.6a1.873,1.873,0,1,1-1.873,1.873A1.875,1.875,0,0,1,50.55,83.377Z" transform="translate(-45.113 -77.825)" fill="#818181"/>
  <path id="Path_4992" data-name="Path 4992" d="M154.637,85.25a2.727,2.727,0,1,0,2.727-2.727A2.73,2.73,0,0,0,154.637,85.25Zm4.6,0a1.873,1.873,0,1,1-1.873-1.873A1.875,1.875,0,0,1,159.236,85.25Z" transform="translate(-145.846 -77.825)" fill="#818181"/>
  <path id="Path_4993" data-name="Path 4993" d="M264.178,87.976a2.727,2.727,0,1,0-2.727-2.727A2.73,2.73,0,0,0,264.178,87.976Zm0-4.6A1.873,1.873,0,1,1,262.3,85.25,1.875,1.875,0,0,1,264.178,83.377Z" transform="translate(-246.579 -77.825)" fill="#818181"/>
  <path id="Path_4994" data-name="Path 4994" d="M60.227,51.131H48.249a.427.427,0,0,0,0,.854H60.227a.427.427,0,0,0,0-.854Z" transform="translate(-45.112 -48.22)" fill="#818181"/>
  <path id="Path_4995" data-name="Path 4995" d="M50.55,237.515a2.727,2.727,0,1,0-2.727-2.727A2.73,2.73,0,0,0,50.55,237.515Zm0-4.6a1.873,1.873,0,1,1-1.873,1.873A1.875,1.875,0,0,1,50.55,232.916Z" transform="translate(-45.113 -218.851)" fill="#818181"/>
  <path id="Path_4996" data-name="Path 4996" d="M154.637,234.789a2.727,2.727,0,1,0,2.727-2.727A2.73,2.73,0,0,0,154.637,234.789Zm4.6,0a1.873,1.873,0,1,1-1.873-1.873A1.875,1.875,0,0,1,159.236,234.789Z" transform="translate(-145.846 -218.851)" fill="#818181"/>
  <path id="Path_4997" data-name="Path 4997" d="M48.249,201.524H60.227a.427.427,0,0,0,0-.854H48.249a.427.427,0,0,0,0,.854Z" transform="translate(-45.112 -189.246)" fill="#818181"/>
  <path id="Path_4998" data-name="Path 4998" d="M50.55,392.427a2.727,2.727,0,1,0-2.727-2.727A2.73,2.73,0,0,0,50.55,392.427Zm0-4.6a1.873,1.873,0,1,1-1.873,1.873A1.875,1.875,0,0,1,50.55,387.828Z" transform="translate(-45.113 -364.945)" fill="#818181"/>
  <path id="Path_4999" data-name="Path 4999" d="M154.637,389.7a2.727,2.727,0,1,0,2.727-2.727A2.73,2.73,0,0,0,154.637,389.7Zm4.6,0a1.873,1.873,0,1,1-1.873-1.873A1.875,1.875,0,0,1,159.236,389.7Z" transform="translate(-145.846 -364.945)" fill="#818181"/>
  <path id="Path_5000" data-name="Path 5000" d="M264.178,392.427a2.727,2.727,0,1,0-2.727-2.727A2.73,2.73,0,0,0,264.178,392.427Zm0-4.6A1.873,1.873,0,1,1,262.3,389.7,1.875,1.875,0,0,1,264.178,387.828Z" transform="translate(-246.579 -364.945)" fill="#818181"/>
  <path id="Path_5001" data-name="Path 5001" d="M48.249,356.436H60.227a.427.427,0,0,0,0-.854H48.249a.427.427,0,0,0,0,.854Z" transform="translate(-45.112 -335.34)" fill="#818181"/>
  <path id="Path_5002" data-name="Path 5002" d="M27.743,5.248l.265-.665a1.164,1.164,0,0,0-.649-1.51L26.2,2.611a1.163,1.163,0,0,0-1.51.649l-.529,1.326a1.522,1.522,0,0,0-.555.471q-.18.249-.361.519V1.752A1.755,1.755,0,0,0,21.495,0H1.964A1.754,1.754,0,0,0,.212,1.752V23.069a.427.427,0,1,0,.854,0V1.752a.9.9,0,0,1,.9-.9H21.495a.9.9,0,0,1,.9.9V6.96a36.27,36.27,0,0,0-2.151,4.516c-.3.762-.579,1.518-.824,2.258a2.727,2.727,0,1,0-1.608,4.929,2.753,2.753,0,0,0,.435-.034c-.248,2.033.03,3.224.828,3.543a1.076,1.076,0,0,0,.4.077c.766,0,1.7-.767,2.79-2.289l.129-.184v7.618a.9.9,0,0,1-.9.9H1.964a.9.9,0,0,1-.9-.9V24.777a.427.427,0,0,0-.854,0v2.617a1.754,1.754,0,0,0,1.752,1.752H21.495a1.754,1.754,0,0,0,1.753-1.752V18.439a35.583,35.583,0,0,0,2.336-4.833,37.943,37.943,0,0,0,1.283-3.759.427.427,0,0,0-.822-.231A37.1,37.1,0,0,1,24.79,13.29c-.4,1-.825,1.956-1.267,2.846L20,14.73c.291-.949.64-1.938,1.038-2.937A30.077,30.077,0,0,1,24.3,5.558a.676.676,0,0,1,.8-.231L26.29,5.8a.676.676,0,0,1,.421.718c-.061.453-.148.945-.26,1.464a.427.427,0,0,0,.835.18c.117-.54.208-1.055.272-1.531a1.525,1.525,0,0,0-.026-.546,1.576,1.576,0,0,1,.947,1.638c-.049,1.1-1.083,3.121-2,4.9-1.117,2.18-1.793,3.555-1.621,4.308a.427.427,0,0,0,.833-.19c-.02-.088-.024-.394.376-1.326.3-.691.722-1.522,1.173-2.4,1-1.949,2.032-3.964,2.088-5.253a2.439,2.439,0,0,0-1.588-2.513ZM15.938,15.937a1.873,1.873,0,0,1,3.2-1.32,27.161,27.161,0,0,0-.757,3.1,1.874,1.874,0,0,1-2.445-1.784Zm7.194.961a22.916,22.916,0,0,1-1.561,2.565c-1.226,1.714-1.963,2-2.181,1.916s-.555-.8-.265-2.891a22.94,22.94,0,0,1,.633-2.935ZM25.416,4.534a1.534,1.534,0,0,0-.28-.081l.349-.876a.309.309,0,0,1,.4-.172l1.157.461a.309.309,0,0,1,.172.4l-.349.876a1.537,1.537,0,0,0-.259-.134Z" transform="translate(-0.212 0)" fill="#818181"/>
</svg>
