<svg width="360" height="640" xmlns="http://www.w3.org/2000/svg" xmlns:xlink="http://www.w3.org/1999/xlink">
 <defs>
  <clipPath id="clip-path">
   <rect stroke="#707070" fill="#fff" height="242" width="360" id="Rectangle_2249"/>
  </clipPath>
  <linearGradient gradientUnits="objectBoundingBox" y2="0.848" x2="-0.001" y1="0.864" x1="0.988" id="linear-gradient">
   <stop stop-color="#ff9b00" offset="0"/>
   <stop stop-color="#b9760f" offset="1"/>
  </linearGradient>
  <linearGradient xlink:href="#linear-gradient" y2="0.152" x2="-0.001" y1="0.136" x1="0.988" id="linear-gradient-2"/>
  <linearGradient gradientUnits="objectBoundingBox" y2="0.5" x2="1" y1="0.5" id="linear-gradient-4">
   <stop stop-color="#fee55f" offset="0"/>
   <stop stop-color="#ff83a1" offset="1"/>
  </linearGradient>
  <linearGradient xlink:href="#linear-gradient-4" y2="0.891" x2="0.94" y1="0.288" x1="0.074" id="linear-gradient-6"/>
  <linearGradient xlink:href="#linear-gradient-4" y2="0.5" x2="20.563" y1="0.5" x1="-11.663" id="linear-gradient-7"/>
  <linearGradient xlink:href="#linear-gradient-4" y2="0.5" x2="1.28" y1="0.5" x1="-30.947" id="linear-gradient-8"/>
  <linearGradient xlink:href="#linear-gradient-4" y2="0.5" x2="8.06" y1="0.5" x1="-24.166" id="linear-gradient-9"/>
  <linearGradient xlink:href="#linear-gradient-4" y2="0.5" x2="15.953" y1="0.5" x1="-2.545" id="linear-gradient-10"/>
  <linearGradient xlink:href="#linear-gradient-4" y2="0.5" x2="31.64" y1="0.5" x1="-0.587" id="linear-gradient-11"/>
  <linearGradient xlink:href="#linear-gradient-4" y2="0.5" x2="20.633" y1="0.5" x1="-6.34" id="linear-gradient-12"/>
  <linearGradient xlink:href="#linear-gradient-4" y2="0.5" x2="1.965" y1="0.5" x1="-41.885" id="linear-gradient-13"/>
  <linearGradient xlink:href="#linear-gradient-4" y2="0.5" x2="15.182" y1="0.5" x1="-28.666" id="linear-gradient-14"/>
 </defs>
 <g>
  <title>background</title>
  <rect fill="none" id="canvas_background" height="402" width="582" y="-1" x="-1"/>
 </g>
 <g>
  <title>Layer 1</title>
  <g stroke="#707070" fill="#fff" id="Rectangle_2250">
   <rect id="svg_1" x="0" y="180" height="460" width="360"/>
   <rect id="svg_2" fill="none" height="459" width="359" y="180.5" x="0.5"/>
  </g>
  <g id="start_quiz">
   <g clip-path="url(#clip-path)" id="Mask_Group_1">
    <g id="Group_2763">
     <rect x="148.005997" y="-288.278015" fill="url(#linear-gradient)" transform="rotate(45 148.00599670410153,-288.27801513671875) " rx="47" height="347.76" width="393" id="Rectangle_28"/>
     <path fill="url(#linear-gradient-2)" transform="rotate(138 764.7919921875001,86.7379989624024) " d="m814.056992,83.737999l313.408,-13.675c27.208,-1.187 48.251,18.784 47,44.606l-12.228,252.439c-1.251,25.822 -24.321,47.718 -51.53,48.9l-313.408,13.679c-27.208,1.187 -48.251,-18.784 -47,-44.606l12.228,-252.443c1.251,-25.819 24.322,-47.714 51.53,-48.9z" id="Path_5155"/>
     <path fill="url(#linear-gradient)" transform="rotate(45 -170.9940032958985,-186.2779998779297) " d="m-121.729003,-184.013l313.408,14.408c27.208,1.251 50.279,24.321 51.53,51.53l12.227,265.987c1.251,27.208 -19.792,48.251 -47,47l-313.408,-14.408c-27.208,-1.251 -50.279,-24.321 -51.53,-51.53l-12.227,-265.987c-1.251,-27.208 19.792,-48.251 47,-47z" id="Path_5154"/>
    </g>
   </g>
   <g id="Group_2765">
    <ellipse fill="#fff" ry="110" rx="154.5" cy="133" cx="180.5" id="Ellipse_440"/>
    <g id="Group_2714">
     <g id="Group_2697">
      <path fill="url(#linear-gradient-4)" opacity="0.2" d="m274.335998,186.246014a101.668,101.668 0 1 0 -191.673,0l191.673,0z" id="Path_5018"/>
      <path fill="url(#linear-gradient-4)" opacity="0.4" d="m248.040013,186.245998a77.4,77.4 0 1 0 -139.075,0l139.075,0z" id="Path_5019"/>
      <path fill="url(#linear-gradient-6)" d="m217.516987,186.245996a51.765,51.765 0 1 0 -78.036,0l78.036,0z" id="Path_5020"/>
     </g>
     <g id="Group_2699">
      <path fill="#d6d6d6" d="m218.39999,186.168016a10.107,10.107 0 0 0 -3.441,-11.03c-5.774,-4.7 -13.52,-0.173 -13.52,-0.173a12.52,12.52 0 0 0 -9.889,-9.889a14.528,14.528 0 0 0 -13.969,4.7s-2.829,-14.937 -19.23,-11.768c-12.616,2.438 -12.512,15.087 -12.512,15.087s-5.74,-1.28 -9.163,3.561a9.228,9.228 0 0 0 -0.8,9.509l82.524,0.003z" id="Path_5021"/>
      <g id="Group_2698">
       <path fill="#fff" d="m141.416002,180.944974a8.325,8.325 0 0 1 8.572,-3.561s-0.1,-12.649 11.7,-15.087c8.226,-1.7 12.8,1.806 15.277,5.424c-1.476,-3.979 -6.083,-12.132 -18.617,-9.709c-12.616,2.438 -12.512,15.087 -12.512,15.087s-5.74,-1.28 -9.163,3.561a9.228,9.228 0 0 0 -0.8,9.509l3.891,0a9.6,9.6 0 0 1 1.652,-5.224z" id="Path_5022"/>
       <path fill="#fff" d="m214.958976,175.138985c-5.774,-4.7 -13.52,-0.173 -13.52,-0.173a12.52,12.52 0 0 0 -9.889,-9.889a14.457,14.457 0 0 0 -13.6,4.28a17.867,17.867 0 0 1 1.726,4.708s4.895,-6.6 13.068,-4.7s9.251,9.889 9.251,9.889s7.245,-4.53 12.647,0.173a10.211,10.211 0 0 1 3.588,6.744l0.165,0a10.107,10.107 0 0 0 -3.436,-11.032z" id="Path_5023"/>
      </g>
      <path fill="#3d454e" d="m218.399002,186.733027a0.565,0.565 0 0 1 -0.53,-0.76a9.466,9.466 0 0 0 -3.267,-10.4c-5.4,-4.395 -12.8,-0.166 -12.878,-0.123a0.565,0.565 0 0 1 -0.844,-0.407a11.853,11.853 0 0 0 -9.45,-9.418a14.03,14.03 0 0 0 -13.407,4.5a0.565,0.565 0 0 1 -1,-0.245c-0.011,-0.06 -1.208,-6.049 -6.2,-9.428c-3.263,-2.21 -7.425,-2.846 -12.371,-1.891a13.763,13.763 0 0 0 -10.562,8.1a17.271,17.271 0 0 0 -1.493,6.432a0.565,0.565 0 0 1 -0.688,0.556a8.594,8.594 0 0 0 -8.574,3.337a8.7,8.7 0 0 0 -0.764,8.906a0.565,0.565 0 0 1 -0.492,0.842c-0.338,0 -0.447,-0.6 -0.447,-0.658c-0.628,-1.629 -1.97,-5.851 0.781,-9.742a9.71,9.71 0 0 1 9.089,-3.883c0.2,-2.684 1.692,-12.82 12.94,-14.994c5.257,-1.016 9.708,-0.319 13.23,2.072a16.929,16.929 0 0 1 6.4,9.111a15.066,15.066 0 0 1 13.8,-4.115a13.146,13.146 0 0 1 10.159,9.6c2.069,-1.013 8.422,-3.547 13.487,0.578a10.763,10.763 0 0 1 3.614,11.664a0.565,0.565 0 0 1 -0.533,0.366z" id="Path_5024"/>
      <path fill="#fff" d="m161.319009,175.73001c9.815,-4.769 16.315,6.224 16.315,6.224s6.842,-4.772 11.512,-1.175a9.9,9.9 0 0 1 3.142,3.943a9.256,9.256 0 0 0 -4.057,-6.92c-4.91,-3.6 -12.1,1.176 -12.1,1.176s-6.834,-10.993 -17.151,-6.224c-9.642,4.457 -7.123,13.416 -7.123,13.416l2.411,0c0.08,-3.017 1.262,-7.625 7.051,-10.44z" id="Path_5025"/>
      <path fill="#3d454e" d="m201.231994,186.733993l-8.99,0a0.565,0.565 0 0 1 -0.555,-0.67c0.032,-0.18 0.755,-4.479 -3.79,-7.807s-11.388,1.145 -11.456,1.191a0.565,0.565 0 0 1 -0.792,-0.172a19.015,19.015 0 0 0 -4.584,-4.76a11.16,11.16 0 0 0 -11.85,-1.25c-9.074,4.194 -6.912,12.4 -6.816,12.751a0.565,0.565 0 0 1 -1.088,0.3c-0.027,-0.094 -2.534,-9.476 7.43,-14.082c9.383,-4.338 16.05,3.883 17.549,5.973c1.737,-1.025 7.8,-4.148 12.274,-0.868a9.6,9.6 0 0 1 4.3,8.259l8.366,0a0.565,0.565 0 1 1 0,1.13l0.002,0.005z" id="Path_5026"/>
      <path fill="#3d454e" d="m140.741007,166.812997a0.565,0.565 0 0 1 -0.539,-0.733a23.6,23.6 0 0 1 4.486,-7.939a24.825,24.825 0 0 1 1.891,-1.855a0.565,0.565 0 1 1 0.746,0.848a23.587,23.587 0 0 0 -1.8,1.77a22.857,22.857 0 0 0 -4.241,7.512a0.565,0.565 0 0 1 -0.543,0.397z" id="Path_5032"/>
      <path fill="#3d454e" d="m150.333011,154.812992a0.565,0.565 0 0 1 -0.288,-1.051a16.877,16.877 0 0 1 4.813,-2.036a0.565,0.565 0 0 1 0.221,1.108a16.128,16.128 0 0 0 -4.458,1.9a0.563,0.563 0 0 1 -0.288,0.079z" id="Path_5033"/>
      <path fill="#3d454e" d="m204.252013,171.020991a0.565,0.565 0 0 1 -0.546,-0.423a12.863,12.863 0 0 0 -3.531,-5.324a14.865,14.865 0 0 0 -4,-2.618a0.565,0.565 0 0 1 0.433,-1.044a15.769,15.769 0 0 1 4.346,2.846a13.687,13.687 0 0 1 3.843,5.858a0.565,0.565 0 0 1 -0.547,0.705l0.002,0z" id="Path_5034"/>
      <path fill="#3d454e" d="m186.305988,185.362974a0.565,0.565 0 0 1 -0.537,-0.39a4.177,4.177 0 0 0 -1.572,-1.822a5.707,5.707 0 0 0 -1.827,-0.759a0.565,0.565 0 0 1 0.224,-1.107a6.8,6.8 0 0 1 2.248,0.939a5.171,5.171 0 0 1 2,2.4a0.566,0.566 0 0 1 -0.539,0.736l0.003,0.003z" id="Path_5035"/>
      <path fill="#252527" d="m214.256022,184.641013a0.575,0.575 0 0 1 -0.114,-0.012a0.565,0.565 0 0 1 -0.441,-0.666a5.988,5.988 0 0 0 -0.927,-4.411a5.922,5.922 0 0 0 -3.782,-1.988a0.565,0.565 0 0 1 0.08,-1.127a6.284,6.284 0 0 1 5.736,7.751a0.566,0.566 0 0 1 -0.552,0.453z" id="Path_5036"/>
     </g>
     <g id="Group_2704">
      <g id="Group_2703">
       <g id="Group_2700">
        <path fill="#3d454e" d="m183.126023,139.547013a0.565,0.565 0 0 1 -0.565,-0.565l0,-2.643a0.565,0.565 0 0 1 1.13,0l0,2.643a0.565,0.565 0 0 1 -0.565,0.565z" id="Path_5037"/>
        <path fill="#3d454e" d="m183.126023,150.962984a0.565,0.565 0 0 1 -0.565,-0.565l0,-8.985a0.565,0.565 0 1 1 1.13,0l0,8.985a0.565,0.565 0 0 1 -0.565,0.565z" id="Path_5038"/>
       </g>
       <g id="Group_2701">
        <path fill="#3d454e" d="m177.961001,149.271986a0.565,0.565 0 0 1 -0.565,-0.565l0,-9.2a0.565,0.565 0 1 1 1.13,0l0,9.2a0.565,0.565 0 0 1 -0.565,0.565z" id="Path_5039"/>
        <path fill="#3d454e" d="m177.961001,153.921985a0.565,0.565 0 0 1 -0.565,-0.565l0,-2.326a0.565,0.565 0 0 1 1.13,0l0,2.326a0.565,0.565 0 0 1 -0.565,0.565z" id="Path_5040"/>
       </g>
       <g id="Group_2702">
        <path fill="#3d454e" d="m172.794979,140.849003a0.565,0.565 0 0 1 -0.565,-0.565l0,-6.554a0.565,0.565 0 1 1 1.13,0l0,6.554a0.565,0.565 0 0 1 -0.565,0.565z" id="Path_5041"/>
        <path fill="#3d454e" d="m172.794979,147.791991a0.565,0.565 0 0 1 -0.565,-0.565l0,-4.017a0.565,0.565 0 1 1 1.13,0l0,4.017a0.565,0.565 0 0 1 -0.565,0.565z" id="Path_5042"/>
       </g>
       <path fill="#3d454e" d="m167.626018,142.950012a0.565,0.565 0 0 1 -0.565,-0.565l0,-5.784a0.565,0.565 0 1 1 1.13,0l0,5.784a0.565,0.565 0 0 1 -0.565,0.565z" id="Path_5043"/>
       <path fill="#3d454e" d="m188.290994,141.187989a0.565,0.565 0 0 1 -0.565,-0.565l0,-9.292a0.565,0.565 0 1 1 1.13,0l0,9.292a0.565,0.565 0 0 1 -0.565,0.565z" id="Path_5044"/>
      </g>
     </g>
     <g id="light">
      <g id="Group_2705">
       <path fill="#252527" d="m226.182971,71.571014a0.261,0.261 0 0 1 -0.044,0a0.255,0.255 0 0 1 -0.207,-0.295a28.619,28.619 0 0 0 -12.673,-29.012a0.255,0.255 0 0 1 0.276,-0.428a29.127,29.127 0 0 1 12.9,29.525a0.255,0.255 0 0 1 -0.252,0.21z" id="Path_5045"/>
      </g>
      <g id="Group_2706">
       <path fill="#ffcf00" d="m229.458004,60.588011a0.51,0.51 0 0 1 -0.5,-0.444a29.347,29.347 0 0 0 -21.262,-24.531a0.51,0.51 0 1 1 0.274,-0.982a30.364,30.364 0 0 1 22,25.382a0.509,0.509 0 0 1 -0.44,0.571a0.484,0.484 0 0 1 -0.072,0.004z" id="Path_5047"/>
       <path fill="#ffcf00" d="m137.665984,93.506996a0.507,0.507 0 0 1 -0.33,-0.121a15.267,15.267 0 0 1 -4.7,-16.222a0.51,0.51 0 1 1 0.973,0.3a14.25,14.25 0 0 0 4.385,15.141a0.51,0.51 0 0 1 -0.33,0.9l0.002,0.002z" id="Path_5048"/>
      </g>
     </g>
     <g id="shapes2">
      <path fill="url(#linear-gradient-7)" d="m155.528004,35.481996a3.214,3.214 0 1 1 3.214,-3.214a3.218,3.218 0 0 1 -3.214,3.214zm0,-5.3a2.084,2.084 0 1 0 2.084,2.085a2.087,2.087 0 0 0 -2.084,-2.083l0,-0.002z" id="Path_5074"/>
      <path fill="url(#linear-gradient-8)" d="m279.476983,160.960975a3.214,3.214 0 1 1 3.214,-3.214a3.218,3.218 0 0 1 -3.214,3.214zm0,-5.3a2.084,2.084 0 1 0 2.084,2.084a2.087,2.087 0 0 0 -2.084,-2.082l0,-0.002z" id="Path_5075"/>
      <path fill="url(#linear-gradient-9)" d="m235.900006,103.679015a3.214,3.214 0 1 1 3.214,-3.214a3.218,3.218 0 0 1 -3.214,3.214zm0,-5.3a2.084,2.084 0 1 0 2.084,2.084a2.087,2.087 0 0 0 -2.084,-2.082l0,-0.002z" id="Path_5076"/>
      <path fill="url(#linear-gradient-10)" d="m111.441984,82.081993a5.6,5.6 0 1 1 5.6,-5.6a5.605,5.605 0 0 1 -5.6,5.6zm0,-10.068a4.469,4.469 0 1 0 4.469,4.469a4.475,4.475 0 0 0 -4.469,-4.469z" id="Path_5077"/>
      <path fill="url(#linear-gradient-11)" d="m84.331002,150.79502a3.214,3.214 0 1 1 3.214,-3.214a3.218,3.218 0 0 1 -3.214,3.214zm0,-5.3a2.084,2.084 0 1 0 2.084,2.084a2.087,2.087 0 0 0 -2.084,-2.082l0,-0.002z" id="Path_5078"/>
      <path fill="url(#linear-gradient-12)" d="m130.669001,126.751005l2.876,-2.876a0.565,0.565 0 0 0 -0.8,-0.8l-2.876,2.876l-2.876,-2.876a0.565,0.565 0 0 0 -0.8,0.8l2.876,2.876l-2.876,2.875a0.565,0.565 0 1 0 0.8,0.8l2.876,-2.876l2.876,2.876a0.565,0.565 0 0 0 0.8,-0.8l-2.876,-2.875z" id="Path_5079"/>
      <path fill="url(#linear-gradient-13)" d="m278.370008,113.761002l1.4,-1.4a0.565,0.565 0 0 0 -0.8,-0.8l-1.4,1.4l-1.4,-1.4a0.565,0.565 0 1 0 -0.8,0.8l1.4,1.4l-1.4,1.4a0.565,0.565 0 1 0 0.8,0.8l1.4,-1.4l1.4,1.4a0.565,0.565 0 0 0 0.8,-0.8l-1.4,-1.4z" id="Path_5080"/>
      <path fill="url(#linear-gradient-14)" d="m215.928019,148.860019l1.4,-1.4a0.565,0.565 0 0 0 -0.8,-0.8l-1.4,1.4l-1.4,-1.4a0.565,0.565 0 0 0 -0.8,0.8l1.4,1.4l-1.4,1.4a0.565,0.565 0 1 0 0.8,0.8l1.4,-1.4l1.4,1.4a0.565,0.565 0 1 0 0.8,-0.8l-1.4,-1.4z" id="Path_5081"/>
     </g>
     <g id="shapes1">
      <path fill="#252527" d="m258.85998,75.540996a1.67,1.67 0 1 1 1.67,-1.67a1.672,1.672 0 0 1 -1.67,1.67zm0,-2.775a1.105,1.105 0 1 0 1.1,1.105a1.107,1.107 0 0 0 -1.1,-1.105z" id="Path_5082"/>
      <path fill="#252527" d="m287.384028,104.346996a1.67,1.67 0 1 1 1.67,-1.67a1.672,1.672 0 0 1 -1.67,1.67zm0,-2.775a1.105,1.105 0 1 0 1.1,1.105a1.107,1.107 0 0 0 -1.1,-1.105z" id="Path_5083"/>
      <path fill="#252527" d="m249.540993,161.676008a1.388,1.388 0 1 1 1.387,-1.388a1.39,1.39 0 0 1 -1.387,1.388zm0,-2.21a0.823,0.823 0 1 0 0.822,0.823a0.824,0.824 0 0 0 -0.822,-0.823z" id="Path_5084"/>
      <path fill="#252527" d="m128.668984,48.146986a1.388,1.388 0 1 1 1.388,-1.388a1.389,1.389 0 0 1 -1.388,1.388zm0,-2.21a0.823,0.823 0 1 0 0.823,0.823a0.824,0.824 0 0 0 -0.823,-0.823z" id="Path_5085"/>
      <path fill="#252527" d="m111.441994,117.337996a1.388,1.388 0 1 1 1.387,-1.388a1.389,1.389 0 0 1 -1.387,1.388zm0,-2.21a0.823,0.823 0 1 0 0.823,0.823a0.824,0.824 0 0 0 -0.823,-0.823z" id="Path_5086"/>
      <path fill="#252527" d="m167.188003,38.345012l-0.4,-0.4l-1,1l-1,-1l-0.4,0.4l1,1l-1,1l0.4,0.4l1,-1l1,1l0.4,-0.4l-1,-1l1,-1z" id="Path_5087"/>
      <path fill="#252527" d="m292.807008,146.36898l-0.4,-0.4l-1,1l-1,-1l-0.4,0.4l1,1l-1,1l0.4,0.4l1,-1l1,1l0.4,-0.4l-1,-1l1,-1z" id="Path_5088"/>
      <g id="Group_2712">
       <g id="Group_2711">
        <rect x="239.607002" y="126.605001" fill="#252527" transform="rotate(-45 239.6069946289062,126.60500335693352) " height="0.565" width="3.389" id="Rectangle_2231"/>
        <rect x="239.607002" y="124.608002" fill="#252527" transform="rotate(-45 239.60699462890622,124.60800170898435) " height="3.389" width="0.565" id="Rectangle_2232"/>
       </g>
      </g>
      <path fill="#252527" d="m73.938996,115.586997l-0.4,-0.4l-1,1l-1,-1l-0.4,0.4l1,1l-1,1l0.4,0.4l1,-1l1,1l0.4,-0.4l-1,-1l1,-1z" id="Path_5089"/>
      <path fill="#252527" d="m95.966996,75.484l-0.4,-0.4l-1,1l-1,-1l-0.4,0.4l1,1l-1,1l0.4,0.4l1,-1l1,1l0.4,-0.4l-1,-1l1,-1z" id="Path_5090"/>
      <path fill="#252527" d="m146.178004,111.125011a1.67,1.67 0 1 1 1.67,-1.67a1.672,1.672 0 0 1 -1.67,1.67zm0,-2.775a1.105,1.105 0 1 0 1.105,1.105a1.107,1.107 0 0 0 -1.105,-1.105z" id="Path_5091"/>
     </g>
    </g>
    <g id="Group_2762">
     <rect x="156.756001" y="94.737999" fill="#89a7c9" height="11.013" width="42.92" id="Rectangle_2236"/>
     <rect x="157.552999" y="94.737999" fill="#6c849f" height="11.013" width="40.562" id="Rectangle_2237"/>
     <rect x="158.931" y="94.737999" fill="#404e5e" height="11.013" width="37.804" id="Rectangle_2238"/>
     <rect x="162.325001" y="94.737999" fill="#171c21" height="11.013" width="31.018" id="Rectangle_2239"/>
     <path fill="#c8d1dc" d="m208.416001,101.106002l-60.4,0a7.892,7.892 0 0 0 -7.892,7.892l0,17.148l76.185,0l0,-17.148a7.893,7.893 0 0 0 -7.893,-7.892z" id="Path_5120"/>
     <path fill="#c8d1dc" d="m208.416001,101.106002l-60.4,0a7.892,7.892 0 0 0 -7.892,7.892l0,17.148l76.185,0l0,-17.148a7.893,7.893 0 0 0 -7.893,-7.892z" id="Path_5121"/>
     <path fill="#d5dfeb" d="m195.718002,101.106002l-35.954,0a7.893,7.893 0 0 0 -7.893,7.892l0,17.148l51.74,0l0,-17.148a7.893,7.893 0 0 0 -7.893,-7.892z" id="Path_5122"/>
     <path fill="#eef1f5" d="m204.844991,101.106002l-4.74,0a7.893,7.893 0 0 1 7.893,7.892l0,17.148l4.74,0l0,-17.148a7.893,7.893 0 0 0 -7.893,-7.892z" id="Path_5123"/>
     <path fill="#e6f0fc" d="m207.651001,101.106002l-0.658,0a7.893,7.893 0 0 1 7.892,7.892l0,17.148l0.658,0l0,-17.148a7.893,7.893 0 0 0 -7.892,-7.892z" id="Path_5124"/>
     <path fill="#9aabbe" d="m148.357999,101.106002l4.739,0a7.892,7.892 0 0 0 -7.892,7.892l0,17.148l-4.74,0l0,-17.148a7.892,7.892 0 0 1 7.893,-7.892z" id="Path_5125"/>
     <path fill="#9aabbe" d="m156.486,101.106002l-1.7,0a7.893,7.893 0 0 0 -7.892,7.892l0,17.148l1.7,0l0,-17.148a7.893,7.893 0 0 1 7.892,-7.892z" id="Path_5126"/>
     <path fill="#9aabbe" d="m219.425002,122.151997l-82.419,0a1.673,1.673 0 0 0 -1.673,1.674l0,3.635l85.765,0l0,-3.635a1.673,1.673 0 0 0 -1.673,-1.674z" id="Path_5127"/>
     <path fill="#dfe9f5" d="m219.117997,122.151997l-0.441,0a1.673,1.673 0 0 1 1.673,1.674l0,3.635l0.441,0l0,-3.635a1.673,1.673 0 0 0 -1.673,-1.674z" id="Path_5128"/>
     <path fill="#bcd1e8" d="m216.027003,122.151997l-2.631,0a1.673,1.673 0 0 1 1.673,1.674l0,3.635l2.631,0l0,-3.635a1.673,1.673 0 0 0 -1.673,-1.674z" id="Path_5129"/>
     <path fill="#6d86a1" d="m144.264003,122.151997l2.631,0a1.673,1.673 0 0 0 -1.673,1.674l0,3.635l-2.631,0l0,-3.635a1.673,1.673 0 0 1 1.673,-1.674z" id="Path_5130"/>
     <path fill="#adc1d6" d="m204.121002,122.151997l-52.577,0a1.673,1.673 0 0 0 -1.673,1.674l0,3.635l55.919,0l0,-3.635a1.673,1.673 0 0 0 -1.669,-1.674z" id="Path_5131"/>
     <rect x="151.146" y="104.642998" fill="#f08f1f" height="15.986" width="53.161" id="Rectangle_2240"/>
     <path fill="#fff" d="m155.192997,109.658986a2.654,2.654 0 1 1 5.3,0l0,5.776a3.263,3.263 0 0 1 -0.334,1.555c0.079,0.206 0.206,0.238 0.492,0.238l0.159,0l0,1.555l-0.238,0a1.533,1.533 0 0 1 -1.507,-0.761a3.585,3.585 0 0 1 -1.222,0.206a2.465,2.465 0 0 1 -2.65,-2.792l0,-5.777zm1.746,11.664c0,0.793 0.349,1.1 0.9,1.1s0.9,-0.3 0.9,-1.1l0,-6c0,-0.793 -0.349,-1.094 -0.9,-1.094s-0.9,0.3 -0.9,1.094l0,6z" id="Path_5132"/>
     <path fill="#fff" d="m163.285003,106.994006l0,8.568c0,0.793 0.349,1.08 0.9,1.08s0.9,-0.286 0.9,-1.08l0,-8.568l1.65,0l0,8.457c0,1.778 -0.889,2.793 -2.6,2.793s-2.6,-1.015 -2.6,-2.793l0,-8.457l1.75,0z" id="Path_5133"/>
     <rect x="167.935001" y="106.992996" fill="#fff" height="11.107" width="1.745" id="Rectangle_2241"/>
     <path fill="#fff" d="m175.788998,106.994006l0,1.555l-3.316,7.965l3.316,0l0,1.587l-5.109,0l0,-1.555l3.316,-7.965l-3.157,0l0,-1.587l4.95,0z" id="Path_5134"/>
     <path fill="#fff" d="m178.772999,106.994006l5.395,0l0,1.587l-1.825,0l0,9.52l-1.747,0l0,-9.52l-1.825,0l0.002,-1.587z" id="Path_5135"/>
     <rect x="184.93" y="106.992996" fill="#fff" height="11.107" width="1.745" id="Rectangle_2242"/>
     <path fill="#fff" d="m191.642005,114.880006l1.19,-7.886l2.427,0l0,11.107l-1.65,0l0,-7.965l-1.206,7.965l-1.65,0l-1.3,-7.854l0,7.854l-1.523,0l0,-11.107l2.428,0l1.284,7.886z" id="Path_5136"/>
     <path fill="#fff" d="m198.274991,111.675006l2.4,0l0,1.586l-2.4,0l0,3.253l3.015,0l0,1.587l-4.76,0l0,-11.107l4.76,0l0,1.587l-3.015,0l0,3.094z" id="Path_5137"/>
     <path fill="#fe3229" d="m207.856998,97.545005a30.454,30.454 0 0 0 -59.281,0l59.281,0z" id="Path_5138"/>
     <path fill="#db180f" d="m178.215998,94.466003c-10.793,0 -20.288,-2.413 -25.817,-6.069a30.287,30.287 0 0 0 -3.823,9.148l59.281,0a30.292,30.292 0 0 0 -3.823,-9.148c-5.53,3.656 -15.025,6.069 -25.818,6.069z" id="Path_5139"/>
     <path fill="#fe5851" d="m193.115001,82.035995c0,4.177 -6.873,7.563 -15.351,7.563s-15.351,-3.386 -15.351,-7.563s6.873,-7.564 15.351,-7.564s15.351,3.387 15.351,7.564z" id="Path_5140"/>
     <path fill="#fe847f" d="m186.668006,77.537992c0,1.574 -3.986,2.851 -8.9,2.851s-8.9,-1.277 -8.9,-2.851s3.986,-2.851 8.9,-2.851s8.9,1.274 8.9,2.851z" id="Path_5141"/>
     <path fill="#fff" d="m182.371007,76.287005c0,0.77 -2.063,0.859 -4.607,0.859s-4.607,-0.089 -4.607,-0.859s2.063,-1.4 4.607,-1.4s4.607,0.627 4.607,1.4z" id="Path_5142"/>
     <path fill="#fe3229" d="m229.215003,48.482003l-20.844,13.771l6.285,0.639l-12.165,9.935l23.317,-12.9l-7.5,-1.26l10.907,-10.185z" id="Path_5143"/>
     <path fill="#fe3229" d="m129.000001,41.030002l22.737,18.236l-6.782,1.369l9.149,11.895l-23.13,-18.97l8.034,0.085l-10.008,-12.615z" id="Path_5144"/>
     <path fill="#fde400" d="m219.777007,98.696997l9.244,2.711l-3.081,1.315l4.621,2.789l-9.049,-2.865l3.268,-1.409l-5.003,-2.541z" id="Path_5145"/>
     <path fill="#fed137" d="m194.945992,62.598999a0.772,0.772 0 0 1 -0.8,-0.965l5.2,-19.984a0.772,0.772 0 0 1 1.494,0.389l-5.2,19.984a0.772,0.772 0 0 1 -0.694,0.576z" id="Path_5146"/>
     <path fill="#fe3229" d="m214.635988,81.199996a0.772,0.772 0 0 1 -0.177,-1.523l13.777,-3.263a0.772,0.772 0 0 1 0.356,1.5l-13.778,3.263a0.783,0.783 0 0 1 -0.178,0.023z" id="Path_5147"/>
     <path fill="#fed137" d="m169.823005,66.017998a0.772,0.772 0 0 1 -1.475,0.421l-3.675,-8.62a0.772,0.772 0 0 1 1.426,-0.594l3.675,8.62a0.775,0.775 0 0 1 0.049,0.173z" id="Path_5148"/>
     <path fill="#fed137" d="m145.738002,83.031a0.755,0.755 0 0 1 -0.178,-0.042l-13.072,-4.8a0.772,0.772 0 0 1 0.532,-1.449l13.072,4.8a0.772,0.772 0 0 1 -0.355,1.492l0.001,-0.001z" id="Path_5149"/>
     <path fill="#db180f" d="m169.018993,45.390999c0.676,-0.384 2.085,1 2.085,1s1.617,-0.895 2.19,-0.37s-0.159,2.228 -0.159,2.228s1.762,1.191 1.44,1.9s-2.58,0.608 -2.58,0.608s-0.98,1.935 -1.753,1.848s-0.983,-2.157 -0.983,-2.157s-1.926,-0.073 -2.082,-0.835s1.531,-1.868 1.531,-1.868s-0.366,-1.97 0.311,-2.354z" id="Path_5150"/>
     <path fill="#fe5851" d="m187.044999,62.058c0.4,0.238 0.1,1.378 0.1,1.378s0.942,0.576 0.839,1.029s-1.2,0.576 -1.2,0.576s-0.1,1.268 -0.561,1.309s-1.078,-1.162 -1.078,-1.162s-1.295,0.062 -1.478,-0.366s0.831,-1.148 0.831,-1.148s-0.531,-1.023 -0.181,-1.329s1.42,0.246 1.42,0.246s0.909,-0.771 1.308,-0.533z" id="Path_5151"/>
     <path fill="#fe3229" d="m217.505998,88.710004c0.4,0.221 0.15,1.359 0.15,1.359s0.954,0.534 0.869,0.986s-1.17,0.615 -1.17,0.615s-0.049,1.258 -0.505,1.316s-1.11,-1.108 -1.11,-1.108s-1.279,0.111 -1.476,-0.306s0.778,-1.167 0.778,-1.167s-0.564,-0.991 -0.229,-1.307s1.414,0.189 1.414,0.189s0.875,-0.798 1.279,-0.577z" id="Path_5152"/>
     <path fill="#fef856" d="m133.701003,95.193005c0.432,-0.159 1.122,0.781 1.122,0.781s1.03,-0.368 1.314,-0.006s-0.306,1.286 -0.306,1.286s0.915,0.864 0.659,1.246s-1.565,0.108 -1.565,0.108s-0.758,1.036 -1.2,0.911s-0.368,-1.354 -0.368,-1.354s-1.118,-0.227 -1.136,-0.687s1.072,-0.941 1.072,-0.941s-0.024,-1.181 0.408,-1.344z" id="Path_5153"/>
    </g>
   </g>
  </g>
 </g>
</svg>