<svg xmlns="http://www.w3.org/2000/svg" width="24" height="24" viewBox="0 0 24 24">
  <g id="save_pin" transform="translate(-2.681 -2.676)">
    <path id="Path_613" data-name="Path 613" d="M31.635,19.225H29.87V29.8h1.765a5.289,5.289,0,1,0,0-10.577Z" transform="translate(-16.115 -9.84)" fill="#52b8d9"/>
    <path id="Path_614" data-name="Path 614" d="M31.342,29.717H29.577a.207.207,0,0,1-.207-.207V18.932a.207.207,0,0,1,.207-.207h1.765a5.5,5.5,0,1,1,0,10.992ZM29.784,29.3h1.558a5.082,5.082,0,1,0,0-10.163H29.784Z" transform="translate(-15.823 -9.547)" fill="#63312d"/>
    <path id="Path_615" data-name="Path 615" d="M17.1,24.514a5.289,5.289,0,1,0,5.289-5.289A5.289,5.289,0,0,0,17.1,24.514Z" transform="translate(-8.57 -9.84)" fill="#84dbff"/>
    <path id="Path_616" data-name="Path 616" d="M17.967,24.514a5.287,5.287,0,0,1,4.855-5.267c-.144-.012-.288-.022-.434-.022a5.289,5.289,0,1,0,0,10.577c.147,0,.291-.01.434-.022A5.287,5.287,0,0,1,17.967,24.514Z" transform="translate(-8.538 -9.84)" fill="#caf4ff"/>
    <path id="Path_617" data-name="Path 617" d="M22.094,29.717a5.5,5.5,0,1,1,5.5-5.5A5.5,5.5,0,0,1,22.094,29.717Zm0-10.577a5.082,5.082,0,1,0,5.082,5.081A5.088,5.088,0,0,0,22.094,19.139Z" transform="translate(-8.277 -9.547)" fill="#63312d"/>
    <path id="Path_618" data-name="Path 618" d="M29.151,26.255a1.733,1.733,0,1,1-1.733-1.732A1.733,1.733,0,0,1,29.151,26.255Z" transform="translate(-13.607 -12.925)" fill="#f8f3f3"/>
    <path id="Path_619" data-name="Path 619" d="M27.124,27.9a1.94,1.94,0,1,1,1.94-1.94,1.942,1.942,0,0,1-1.94,1.94Zm0-3.465a1.526,1.526,0,1,0,1.526,1.525,1.527,1.527,0,0,0-1.526-1.525Z" transform="translate(-13.314 -12.631)" fill="#63312d"/>
    <path id="Path_620" data-name="Path 620" d="M28.788,35.338a2.613,2.613,0,0,0-5.216,0Z" transform="translate(-12.368 -17.867)" fill="#f8f3f3"/>
    <path id="Path_621" data-name="Path 621" d="M28.5,35.252H23.279a.207.207,0,0,1-.207-.22,2.82,2.82,0,0,1,5.629,0,.207.207,0,0,1-.207.22Zm-4.985-.414h4.754a2.406,2.406,0,0,0-4.754,0Z" transform="translate(-12.075 -17.575)" fill="#63312d"/>
    <path id="Path_622" data-name="Path 622" d="M13.891,35.454,7.783,45.961V41.6l-4.6.028Z" transform="translate(-0.293 -19.492)" fill="#f9a287"/>
    <path id="Path_623" data-name="Path 623" d="M15.122,49.787l-.828,0v4.566l.828-1.425Z" transform="translate(-6.862 -27.889)" fill="#ffc8bb"/>
    <path id="Path_624" data-name="Path 624" d="M13.086,36.839l.805-1.385L3.181,41.627l1.628-.011Z" transform="translate(-0.293 -19.42)" fill="#ffc8bb"/>
    <path id="Path_625" data-name="Path 625" d="M7.491,45.875a.2.2,0,0,1-.054-.007.207.207,0,0,1-.153-.2V41.514l-4.394.027a.207.207,0,0,1-.1-.386L13.5,34.981a.207.207,0,0,1,.282.283L7.669,45.771a.207.207,0,0,1-.179.1Zm0-4.776a.207.207,0,0,1,.207.207V44.9l5.332-9.172L3.67,41.122,7.489,41.1h0Z" transform="translate(0 -19.199)" fill="#63312d"/>
    <path id="Path_626" data-name="Path 626" d="M14.974,3.175a11.782,11.782,0,0,0-10.5,17.144l1.064-.614a10.566,10.566,0,1,1,4.919,4.807l-.619,1.065a11.791,11.791,0,1,0,5.138-22.4Z" transform="translate(-0.293 -0.292)" fill="#84dbff"/>
    <path id="Path_627" data-name="Path 627" d="M27.887,18.789a9.091,9.091,0,1,0-17.249,4l1.069-.616a7.869,7.869,0,1,1,3.932,3.81l-.619,1.064a9.085,9.085,0,0,0,12.867-8.263Z" transform="translate(-4.116 -4.115)" fill="#84dbff"/>
    <g id="Group_2" data-name="Group 2" transform="translate(2.681 2.676)">
      <path id="Path_628" data-name="Path 628" d="M14.681,26.672a11.863,11.863,0,0,1-5.228-1.2.2.2,0,0,1-.088-.287l.619-1.065a.2.2,0,0,1,.264-.082,10.251,10.251,0,0,0,4.431,1A10.361,10.361,0,1,0,4.318,14.674a10.226,10.226,0,0,0,1.106,4.648.2.2,0,0,1-.081.269l-1.065.614a.205.205,0,0,1-.284-.084,11.845,11.845,0,0,1-1.313-5.447,12,12,0,1,1,12,12ZM9.831,25.2a11.451,11.451,0,0,0,4.85,1.065A11.589,11.589,0,1,0,3.09,14.674a11.428,11.428,0,0,0,1.172,5.069l.711-.409a10.629,10.629,0,0,1-1.064-4.659,10.772,10.772,0,1,1,10.772,10.77,10.652,10.652,0,0,1-4.436-.958Z" transform="translate(-2.681 -2.676)"/>
      <path id="Path_629" data-name="Path 629" d="M18.5,27.792a9.206,9.206,0,0,1-3.863-.843.2.2,0,0,1-.109-.124.207.207,0,0,1,.018-.164l.619-1.065a.2.2,0,0,1,.259-.084,7.593,7.593,0,0,0,3.076.649A7.665,7.665,0,1,0,10.837,18.5a7.569,7.569,0,0,0,.758,3.3.2.2,0,0,1-.082.265l-1.07.616a.2.2,0,0,1-.161.018.2.2,0,0,1-.124-.1A9.183,9.183,0,0,1,9.2,18.5a9.3,9.3,0,1,1,9.3,9.3Zm-3.487-1.123a8.793,8.793,0,0,0,3.487.715A8.888,8.888,0,1,0,9.613,18.5a8.772,8.772,0,0,0,.818,3.719l.716-.413a7.961,7.961,0,0,1-.719-3.306A8.074,8.074,0,1,1,18.5,26.568a7.99,7.99,0,0,1-3.073-.612Z" transform="translate(-6.503 -6.498)"/>
    </g>
  </g>
</svg>
