<svg xmlns="http://www.w3.org/2000/svg" width="116.881" height="116.903" viewBox="0 0 116.881 116.903">
  <g id="save_pin_ico" transform="translate(-121.879 -171.873)">
    <g id="relevancy" transform="translate(119.198 169.197)">
      <path id="Path_613" data-name="Path 613" d="M38.365,19.225h-8.5v50.91h8.5a25.455,25.455,0,1,0,0-50.91Z" transform="translate(27.006 16.438)"/>
      <path id="Path_614" data-name="Path 614" d="M38.862,71.628h-8.5a1,1,0,0,1-1-1V19.722a1,1,0,0,1,1-1h8.5a26.452,26.452,0,1,1,0,52.9Zm-7.5-1.993h7.5a24.458,24.458,0,1,0,0-48.917h-7.5Z" transform="translate(26.509 15.941)"/>
      <path id="Path_615" data-name="Path 615" d="M17.1,44.679A25.457,25.457,0,1,0,42.555,19.225,25.457,25.457,0,0,0,17.1,44.679Z" transform="translate(14.319 16.438)" fill="#fff"/>
      <path id="Path_616" data-name="Path 616" d="M21.28,44.679a25.447,25.447,0,0,1,23.367-25.35c-.692-.056-1.385-.1-2.091-.1a25.455,25.455,0,1,0,0,50.91c.706,0,1.4-.048,2.091-.1A25.448,25.448,0,0,1,21.28,44.679Z" transform="translate(14.32 16.438)" fill="#a5a5a5"/>
      <path id="Path_617" data-name="Path 617" d="M43.053,71.628A26.452,26.452,0,1,1,69.505,45.176,26.483,26.483,0,0,1,43.053,71.628Zm0-50.91A24.458,24.458,0,1,0,67.512,45.176,24.486,24.486,0,0,0,43.053,20.718Z" transform="translate(13.823 15.941)"/>
      <path id="Path_618" data-name="Path 618" d="M42.365,32.861a8.34,8.34,0,1,1-8.342-8.338A8.341,8.341,0,0,1,42.365,32.861Z" transform="translate(22.849 21.7)" fill="#f8f3f3"/>
      <path id="Path_619" data-name="Path 619" d="M34.519,42.7a9.336,9.336,0,1,1,9.338-9.338A9.348,9.348,0,0,1,34.519,42.7Zm0-16.678a7.343,7.343,0,1,0,7.345,7.341,7.349,7.349,0,0,0-7.345-7.341Z" transform="translate(22.352 21.203)" fill="#63312d"/>
      <path id="Path_620" data-name="Path 620" d="M48.677,44.667a12.578,12.578,0,0,0-25.105,0Z" transform="translate(20.75 30.012)" fill="#f8f3f3"/>
      <path id="Path_621" data-name="Path 621" d="M49.174,46.16H24.069a1,1,0,0,1-.995-1.06,13.575,13.575,0,0,1,27.094,0,1,1,0,0,1-.995,1.06ZM25.179,44.167H48.062a11.582,11.582,0,0,0-22.883,0Z" transform="translate(20.254 29.515)" fill="#63312d"/>
      <path id="Path_622" data-name="Path 622" d="M54.731,35.454l-29.4,50.571v-21l-22.151.136Z" transform="translate(0.497 32.557)"/>
      <path id="Path_623" data-name="Path 623" d="M18.281,49.787l-3.987.024V71.789l3.987-6.859Z" transform="translate(11.535 46.794)" fill="#646464"/>
      <path id="Path_624" data-name="Path 624" d="M50.856,42.119l3.875-6.665L3.181,65.166l7.834-.052Z" transform="translate(0.497 32.557)" fill="#505050"/>
      <path id="Path_625" data-name="Path 625" d="M25.829,87.519a.964.964,0,0,1-.259-.034,1,1,0,0,1-.738-.963V66.53l-21.149.13a1,1,0,0,1-.5-1.86l51.55-29.714A1,1,0,0,1,56.09,36.45L26.69,87.023a1,1,0,0,1-.861.5Zm0-22.988a1,1,0,0,1,1,1v17.3L52.488,38.678,7.441,64.645l18.382-.112a.007.007,0,0,1,.006,0Z" transform="translate(0 32.06)"/>
      <path id="Path_626" data-name="Path 626" d="M60.625,3.175A57.406,57.406,0,0,0,9.468,86.7l5.184-2.99A51.464,51.464,0,1,1,38.615,107.13L35.6,112.316A57.441,57.441,0,1,0,60.625,3.175Z" transform="translate(0.497 0.496)" fill="#fff"/>
      <path id="Path_627" data-name="Path 627" d="M98.582,54.142a44.438,44.438,0,1,0-84.317,19.58l5.226-3.012A38.465,38.465,0,1,1,38.71,89.341l-3.026,5.2a44.408,44.408,0,0,0,62.9-40.4Z" transform="translate(6.978 6.977)" fill="#fff"/>
      <g id="Group_2" data-name="Group 2" transform="translate(2.681 2.676)">
        <path id="Path_628" data-name="Path 628" d="M61.122,119.559a57.767,57.767,0,0,1-25.46-5.846,1,1,0,0,1-.427-1.4l3.016-5.188a.992.992,0,0,1,1.288-.4,49.914,49.914,0,0,0,21.581,4.858A50.468,50.468,0,1,0,10.654,61.119,49.82,49.82,0,0,0,16.04,83.76a.994.994,0,0,1-.393,1.312l-5.184,2.99a1,1,0,0,1-1.385-.409,57.708,57.708,0,0,1-6.4-26.534,58.441,58.441,0,1,1,58.441,58.441ZM37.5,112.379a55.76,55.76,0,0,0,23.618,5.186A56.448,56.448,0,1,0,4.674,61.119a55.673,55.673,0,0,0,5.709,24.689l3.46-1.993A51.783,51.783,0,0,1,8.661,61.121a52.461,52.461,0,1,1,52.461,52.461,51.866,51.866,0,0,1-21.6-4.664Z" transform="translate(-2.681 -2.676)"/>
        <path id="Path_629" data-name="Path 629" d="M54.641,100.073a44.976,44.976,0,0,1-18.876-4.122,1,1,0,0,1-.534-.6,1.011,1.011,0,0,1,.088-.8l3.026-5.2a.994.994,0,0,1,1.264-.411A37.1,37.1,0,0,0,54.641,92.1,37.464,37.464,0,1,0,17.18,54.636a37,37,0,0,0,3.705,16.135,1,1,0,0,1-.4,1.294l-5.226,3.012a.988.988,0,0,1-.787.09,1,1,0,0,1-.6-.512A44.892,44.892,0,0,1,9.2,54.634a45.435,45.435,0,1,1,45.436,45.438ZM37.6,94.584a42.958,42.958,0,0,0,17.04,3.5A43.443,43.443,0,1,0,11.2,54.636a42.886,42.886,0,0,0,4,18.179L18.7,70.8a38.918,38.918,0,0,1-3.512-16.159A39.456,39.456,0,1,1,54.641,94.091,39.034,39.034,0,0,1,39.626,91.1Z" transform="translate(3.799 3.804)"/>
      </g>
    </g>
  </g>
</svg>
